<svg width="144" height="118" viewBox="0 0 144 118" fill="none" xmlns="http://www.w3.org/2000/svg">
<rect x="15.59" y="6.66522" width="111.087" height="111.087" rx="55.5437" fill="white" fill-opacity="0.1"/>
<rect x="16.09" y="7.16522" width="110.087" height="110.087" rx="55.0437" stroke="#999999" stroke-opacity="0.4"/>
<path d="M15.2189 58C19.4463 58 23.0397 59.4583 25.9989 62.375C28.9581 65.2917 30.4377 68.8333 30.4377 73H27.0558C27.0558 69.75 25.907 66.9928 23.6095 64.7283C21.3132 62.465 18.5163 61.3333 15.2189 61.3333C13.2742 61.3333 11.4564 61.7778 9.76544 62.6667C8.07445 63.5556 6.65121 64.7778 5.4957 66.3333H8.45493C8.93404 66.3333 9.33593 66.4928 9.6606 66.8117C9.98414 67.1317 10.1459 67.5278 10.1459 68C10.1459 68.4722 9.98414 68.8678 9.6606 69.1867C9.33593 69.5067 8.93404 69.6667 8.45493 69.6667H1.69099C1.21187 69.6667 0.810546 69.5067 0.487004 69.1867C0.162335 68.8678 0 68.4722 0 68V61.3333C0 60.8611 0.162335 60.465 0.487004 60.145C0.810546 59.8261 1.21187 59.6667 1.69099 59.6667C2.1701 59.6667 2.57199 59.8261 2.89666 60.145C3.2202 60.465 3.38197 60.8611 3.38197 61.3333V63.5833C4.81931 61.8056 6.57399 60.4306 8.64601 59.4583C10.7169 58.4861 12.9079 58 15.2189 58ZM17.5017 77.5833L14.0352 74.1667C13.8661 74 13.7393 73.8122 13.6547 73.6033C13.5702 73.3956 13.5279 73.1806 13.5279 72.9583V66.3333C13.5279 65.8611 13.6902 65.465 14.0149 65.145C14.3384 64.8261 14.7398 64.6667 15.2189 64.6667C15.698 64.6667 16.0999 64.8261 16.4245 65.145C16.7481 65.465 16.9099 65.8611 16.9099 66.3333V72.3333L19.2772 74.6667L17.5017 77.5833ZM15.3457 88C11.7383 88 8.53271 86.9306 5.72906 84.7917C2.92428 82.6528 1.1696 80.0972 0.465021 77.125C0.324106 76.625 0.373708 76.1528 0.613828 75.7083C0.85282 75.2639 1.22596 74.9861 1.73326 74.875C2.21237 74.7639 2.64188 74.8678 3.02179 75.1867C3.40283 75.5067 3.6638 75.9028 3.80472 76.375C4.39656 78.4306 5.55883 80.2011 7.29153 81.6867C9.02535 83.1733 11.0337 84.1111 13.3165 84.5L15.3457 88ZM24.8152 90.5C24.477 90.3611 24.1602 90.2156 23.8649 90.0633C23.5684 89.91 23.2651 89.7222 22.9551 89.5L21.1373 90.0417C20.94 90.0972 20.7568 90.09 20.5877 90.02C20.4186 89.9511 20.2777 89.8333 20.165 89.6667L19.1504 88C19.0377 87.8333 19.0095 87.6528 19.0659 87.4583C19.1222 87.2639 19.2209 87.0972 19.3618 86.9583L20.7568 85.75C20.7005 85.3889 20.6723 85.0278 20.6723 84.6667C20.6723 84.3056 20.7005 83.9444 20.7568 83.5833L19.3618 82.375C19.2209 82.2361 19.1222 82.0694 19.0659 81.875C19.0095 81.6806 19.0377 81.5 19.1504 81.3333L20.165 79.6667C20.2777 79.5 20.4186 79.3817 20.5877 79.3117C20.7568 79.2428 20.94 79.2361 21.1373 79.2917L22.9551 79.8333C23.2651 79.6111 23.5684 79.4233 23.8649 79.27C24.1602 79.1178 24.477 78.9722 24.8152 78.8333L25.1957 77C25.252 76.8056 25.3434 76.6461 25.4696 76.5217C25.597 76.3961 25.7734 76.3333 25.9989 76.3333H28.0281C28.2535 76.3333 28.43 76.3961 28.5574 76.5217C28.6836 76.6461 28.7749 76.8056 28.8313 77L29.2118 78.8333C29.55 78.9722 29.8741 79.1317 30.1841 79.3117C30.4941 79.4928 30.79 79.6944 31.0719 79.9167L32.8474 79.2917C33.0447 79.2361 33.2352 79.2428 33.4189 79.3117C33.6016 79.3817 33.7492 79.5 33.862 79.6667L34.8766 81.4167C34.9893 81.5833 35.0248 81.7639 34.9831 81.9583C34.9403 82.1528 34.8484 82.3194 34.7075 82.4583L33.2701 83.6667C33.3265 84.0278 33.3547 84.375 33.3547 84.7083C33.3547 85.0417 33.3265 85.3889 33.2701 85.75L34.6652 86.9583C34.8061 87.0972 34.9048 87.2639 34.9611 87.4583C35.0175 87.6528 34.9893 87.8333 34.8766 88L33.862 89.6667C33.7492 89.8333 33.6083 89.9511 33.4392 90.02C33.2701 90.09 33.0869 90.0972 32.8897 90.0417L31.0719 89.5C30.7618 89.7222 30.4592 89.91 30.1638 90.0633C29.8673 90.2156 29.55 90.3611 29.2118 90.5L28.8313 92.3333C28.7749 92.5278 28.6836 92.6872 28.5574 92.8117C28.43 92.9372 28.2535 93 28.0281 93H25.9989C25.7734 93 25.597 92.9372 25.4696 92.8117C25.3434 92.6872 25.252 92.5278 25.1957 92.3333L24.8152 90.5ZM27.0135 88C27.9435 88 28.74 87.6739 29.4029 87.0217C30.0646 86.3683 30.3955 85.5833 30.3955 84.6667C30.3955 83.75 30.0646 82.965 29.4029 82.3117C28.74 81.6594 27.9435 81.3333 27.0135 81.3333C26.0834 81.3333 25.287 81.6594 24.6241 82.3117C23.9624 82.965 23.6315 83.75 23.6315 84.6667C23.6315 85.5833 23.9624 86.3683 24.6241 87.0217C25.287 87.6739 26.0834 88 27.0135 88Z" fill="#EC7B2A"/>
<path d="M89.8159 33.3333C91.0181 33.3333 92.0473 32.8981 92.9035 32.0278C93.7597 31.1574 94.1877 30.1111 94.1877 28.8889C94.1877 27.6667 93.7597 26.6204 92.9035 25.75C92.0473 24.8796 91.0181 24.4444 89.8159 24.4444C88.6136 24.4444 87.5844 24.8796 86.7282 25.75C85.8721 26.6204 85.444 27.6667 85.444 28.8889C85.444 30.1111 85.8721 31.1574 86.7282 32.0278C87.5844 32.8981 88.6136 33.3333 89.8159 33.3333ZM89.3787 40C88.8686 40 88.4223 39.8333 88.0398 39.5C87.6572 39.1667 87.4113 38.7407 87.302 38.2222L86.9741 36.6667C86.5369 36.4815 86.1271 36.287 85.7445 36.0833C85.362 35.8796 84.9704 35.6296 84.5696 35.3333L82.9848 35.8333C82.5112 35.9815 82.0467 35.963 81.5913 35.7778C81.1359 35.5926 80.7806 35.2963 80.5256 34.8889L80.0884 34.1111C79.8334 33.6667 79.7423 33.1852 79.8152 32.6667C79.888 32.1481 80.1249 31.7222 80.5256 31.3889L81.7279 30.3333C81.655 29.8889 81.6186 29.4074 81.6186 28.8889C81.6186 28.3704 81.655 27.8889 81.7279 27.4444L80.5256 26.3889C80.1249 26.0556 79.888 25.6389 79.8152 25.1389C79.7423 24.6389 79.8334 24.1667 80.0884 23.7222L80.5803 22.8889C80.8353 22.4815 81.1814 22.1852 81.6186 22C82.0558 21.8148 82.5112 21.7963 82.9848 21.9444L84.5696 22.4444C84.9704 22.1481 85.362 21.8981 85.7445 21.6944C86.1271 21.4907 86.5369 21.2963 86.9741 21.1111L87.302 19.5C87.4113 18.9815 87.6572 18.5648 88.0398 18.25C88.4223 17.9352 88.8686 17.7778 89.3787 17.7778H90.253C90.7631 17.7778 91.2094 17.9444 91.5919 18.2778C91.9745 18.6111 92.2204 19.037 92.3297 19.5556L92.6576 21.1111C93.0948 21.2963 93.5046 21.4907 93.8872 21.6944C94.2697 21.8981 94.6614 22.1481 95.0621 22.4444L96.6469 21.9444C97.1205 21.7963 97.5851 21.8148 98.0405 22C98.4959 22.1852 98.8511 22.4815 99.1061 22.8889L99.5433 23.6667C99.7983 24.1111 99.8894 24.5926 99.8165 25.1111C99.7437 25.6296 99.5069 26.0556 99.1061 26.3889L97.9038 27.4444C97.9767 27.8889 98.0131 28.3704 98.0131 28.8889C98.0131 29.4074 97.9767 29.8889 97.9038 30.3333L99.1061 31.3889C99.5069 31.7222 99.7437 32.1389 99.8165 32.6389C99.8894 33.1389 99.7983 33.6111 99.5433 34.0556L99.0515 34.8889C98.7964 35.2963 98.4503 35.5926 98.0131 35.7778C97.5759 35.963 97.1205 35.9815 96.6469 35.8333L95.0621 35.3333C94.6614 35.6296 94.2697 35.8796 93.8872 36.0833C93.5046 36.287 93.0948 36.4815 92.6576 36.6667L92.3297 38.2778C92.2204 38.7963 91.9745 39.213 91.5919 39.5278C91.2094 39.8426 90.7631 40 90.253 40H89.3787ZM59.2127 35.5556C58.0104 35.5556 56.9812 35.1204 56.1251 34.25C55.2689 33.3796 54.8408 32.3333 54.8408 31.1111V4.44444C54.8408 3.22222 55.2689 2.17593 56.1251 1.30556C56.9812 0.435185 58.0104 0 59.2127 0H70.5249C71.1079 0 71.6634 0.111111 72.1917 0.333333C72.72 0.555556 73.1845 0.87037 73.5853 1.27778L76.7002 4.44444H94.1877C95.39 4.44444 96.4192 4.87963 97.2754 5.75C98.1315 6.62037 98.5596 7.66667 98.5596 8.88889V16.1111C97.2845 15.1852 95.9001 14.4907 94.4063 14.0278C92.9126 13.5648 91.3824 13.3333 89.8159 13.3333C85.5533 13.3333 81.9374 14.8426 78.9681 17.8611C75.9989 20.8796 74.5143 24.5556 74.5143 28.8889C74.5143 30.0741 74.6327 31.2222 74.8695 32.3333C75.1063 33.4444 75.4797 34.5185 75.9898 35.5556H59.2127Z" fill="#EC7B2A"/>
<path d="M123.12 74.4706C127.019 74.4706 130.18 70.7835 130.18 66.2353C130.18 61.6871 127.019 58 123.12 58C119.221 58 116.06 61.6871 116.06 66.2353C116.06 70.7835 119.221 74.4706 123.12 74.4706Z" fill="#EC7B2A"/>
<path d="M124.303 76.5706C123.914 76.55 123.526 76.5294 123.12 76.5294C118.849 76.5294 114.86 77.9088 111.453 80.2765C109.9 81.3471 109 83.3647 109 85.4853V90.9412H125.344C123.95 88.6147 123.12 85.7735 123.12 82.7059C123.12 80.5029 123.561 78.4441 124.303 76.5706Z" fill="#EC7B2A"/>
<path d="M142.094 82.7059C142.094 82.2529 142.041 81.8412 141.988 81.4088L144 79.3294L142.235 75.7676L139.676 76.7764C139.111 76.2206 138.476 75.7882 137.77 75.4794L137.24 72.4117H133.71L133.181 75.4794C132.475 75.7882 131.839 76.2206 131.274 76.7764L128.715 75.7676L126.95 79.3294L128.962 81.4088C128.909 81.8412 128.856 82.2529 128.856 82.7059C128.856 83.1588 128.909 83.5706 128.962 84.0029L126.95 86.0823L128.715 89.6441L131.274 88.6353C131.839 89.1912 132.475 89.6235 133.181 89.9323L133.71 93H137.24L137.77 89.9323C138.476 89.6235 139.111 89.1912 139.676 88.6353L142.235 89.6441L144 86.0823L141.988 84.0029C142.041 83.5706 142.094 83.1588 142.094 82.7059ZM135.475 86.8235C133.534 86.8235 131.945 84.9706 131.945 82.7059C131.945 80.4412 133.534 78.5882 135.475 78.5882C137.417 78.5882 139.005 80.4412 139.005 82.7059C139.005 84.9706 137.417 86.8235 135.475 86.8235Z" fill="#EC7B2A"/>
</svg>
