<svg width="125" height="91" viewBox="0 0 125 91" fill="none" xmlns="http://www.w3.org/2000/svg">
<path d="M102.273 56.875C100.663 56.875 99.3144 56.329 98.2273 55.237C97.1364 54.1488 96.5909 52.799 96.5909 51.1875V39.8125H85.2273C83.6174 39.8125 82.2689 39.2665 81.1818 38.1745C80.0909 37.0863 79.5455 35.7365 79.5455 34.125C79.5455 32.5135 80.0909 31.1618 81.1818 30.0698C82.2689 28.9816 83.6174 28.4375 85.2273 28.4375H96.5909V17.0625C96.5909 15.451 97.1364 14.0993 98.2273 13.0073C99.3144 11.9191 100.663 11.375 102.273 11.375C103.883 11.375 105.231 11.9191 106.318 13.0073C107.409 14.0993 107.955 15.451 107.955 17.0625V28.4375H119.318C120.928 28.4375 122.277 28.9816 123.364 30.0698C124.455 31.1618 125 32.5135 125 34.125C125 35.7365 124.455 37.0863 123.364 38.1745C122.277 39.2665 120.928 39.8125 119.318 39.8125H107.955V51.1875C107.955 52.799 107.409 54.1488 106.318 55.237C105.231 56.329 103.883 56.875 102.273 56.875ZM45.4545 45.5C39.2045 45.5 33.8542 43.2724 29.4034 38.8172C24.9527 34.362 22.7273 29.0063 22.7273 22.75C22.7273 16.4937 24.9527 11.138 29.4034 6.68281C33.8542 2.22761 39.2045 0 45.4545 0C51.7045 0 57.0549 2.22761 61.5057 6.68281C65.9564 11.138 68.1818 16.4937 68.1818 22.75C68.1818 29.0063 65.9564 34.362 61.5057 38.8172C57.0549 43.2724 51.7045 45.5 45.4545 45.5ZM5.68182 91C4.07197 91 2.72348 90.454 1.63636 89.362C0.545454 88.2738 0 86.924 0 85.3125V75.075C0 71.8521 0.829545 68.8889 2.48864 66.1854C4.14394 63.4858 6.3447 61.425 9.09091 60.0031C14.9621 57.0646 20.928 54.8597 26.9886 53.3886C33.0492 51.9212 39.2045 51.1875 45.4545 51.1875C51.7045 51.1875 57.8598 51.9212 63.9205 53.3886C69.9811 54.8597 75.947 57.0646 81.8182 60.0031C84.5644 61.425 86.7652 63.4858 88.4205 66.1854C90.0795 68.8889 90.9091 71.8521 90.9091 75.075V85.3125C90.9091 86.924 90.3636 88.2738 89.2727 89.362C88.1856 90.454 86.8371 91 85.2273 91H5.68182Z" fill="#EC7B2A"/>
</svg>
